Coordinates
version=1
nRows=21
nColumns=22
inDegrees=yes

Units are S.I. units (second, meters, Newtons, ...)
If the header above contains a line with 'inDegrees', this indicates whether rotational values are in degrees (yes) or radians (no).

endheader
time	pelvis_tilt	pelvis_list	pelvis_rotation	pelvis_tx	pelvis_ty	pelvis_tz	hip_flexion_r	hip_adduction_r	hip_rotation_r	knee_angle_r	ankle_angle_r	subtalar_angle_r	hip_flexion_l	hip_adduction_l	hip_rotation_l	knee_angle_l	ankle_angle_l	subtalar_angle_l	lumbar_extension	lumbar_bending	lumbar_rotation
      2.62000000	     -1.65269670	     -5.12975888	     14.17886895	     -0.25570375	      0.92994053	      0.29686958	     26.73764599	      6.32342777	      7.31921042	    -26.88085051	      4.37510540	      0.72480521	     -2.94481180	      1.98335868	     11.02046091	    -35.73417054	      6.77677185	      1.42899056	     -5.07392049	      6.26315648	     -7.40755981
      2.63000000	     -1.61726023	     -5.15742857	     14.39436310	     -0.24599459	      0.93100771	      0.29502268	     26.10723376	      6.31937894	      7.00294357	    -26.94648646	      4.74146350	      0.53158252	     -1.74266045	      1.77461197	      9.89024533	    -38.30766793	      4.96110643	      3.67200681	     -5.08182815	      6.33332306	     -7.25322729
      2.64000000	     -1.54189523	     -5.19027824	     14.63174510	     -0.23648555	      0.93214746	      0.29323699	     25.37785102	      6.31241350	      6.63963464	    -26.89303207	      5.15630587	      0.41524058	     -0.41489677	      1.45118318	      8.63487568	    -41.00681097	      3.25927636	      5.85432036	     -5.15830226	      6.39604227	     -7.05893089
      2.65000000	     -1.47832818	     -5.26744032	     14.86032056	     -0.22724677	      0.93320584	      0.29161635	     24.66957334	      6.34465594	      6.22686282	    -26.80130541	      5.56290554	      0.40349722	      1.10823856	      0.97187428	      7.24670974	    -43.84012141	      1.75426460	      7.68611716	     -5.24566384	      6.47211108	     -6.75900926
      2.66000000	     -1.37703210	     -5.35641168	     15.09770323	     -0.21818933	      0.93430327	      0.29009329	     23.87660521	      6.39066919	      5.78987100	    -26.60398720	      5.99306816	      0.48950000	      2.71011897	      0.35198174	      5.78574786	    -46.71231971	      0.50904252	      9.17623291	     -5.39437000	      6.54459058	     -6.41334992
      2.67000000	     -1.24436421	     -5.50469248	     15.31401834	     -0.20934017	      0.93535802	      0.28874143	     23.06525200	      6.51478967	      5.32966825	    -26.37027558	      6.37539640	      0.60753910	      4.39694594	     -0.45772505	      4.25921186	    -49.61036165	     -0.45336121	      9.93648503	     -5.59244521	      6.66031663	     -5.94520429
      2.68000000	     -1.10832901	     -5.66207751	     15.52228655	     -0.20066336	      0.93637219	      0.28749620	     22.23453730	      6.66146468	      4.90544890	    -26.08628296	      6.80001491	      0.76375605	      6.14485749	     -1.36968883	      2.76399658	    -52.46155953	     -1.11261549	     10.27910518	     -5.80806945	      6.76106228	     -5.43117832
      2.69000000	     -0.97049265	     -5.84583318	     15.70976499	     -0.19213192	      0.93733703	      0.28635360	     21.40490177	      6.85259116	      4.51642065	    -25.77285755	      7.20092771	      0.92644198	      7.93243538	     -2.39661488	      1.29668781	    -55.21913530	     -1.47679928	     10.08005004	     -6.03285423	      6.86622402	     -4.83259839
      2.70000000	     -0.85683523	     -6.03177033	     15.87771078	     -0.18370885	      0.93824709	      0.28525984	     20.58794599	      7.05821166	      4.19431998	    -25.42518651	      7.62309522	      1.09408305	      9.74772609	     -3.47164273	     -0.09741370	    -57.81982470	     -1.66206793	      9.21206291	     -6.23147694	      6.94542299	     -4.18580474
      2.71000000	     -0.71486282	     -6.20926085	     16.01572071	     -0.17536659	      0.93921163	      0.28416387	     19.72821253	      7.28472593	      3.94721922	    -25.05079290	      7.98040558	      1.18287880	     11.50108413	     -4.57184759	     -1.40782004	    -60.21232426	     -1.62521180	      7.97077490	     -6.46778985	      7.01339200	     -3.46964260
      2.72000000	     -0.57943275	     -6.35831129	     16.13332282	     -0.16707635	      0.94020616	      0.28301262	     18.84729166	      7.49510097	      3.76827113	    -24.64085964	      8.32502343	      1.22022099	     13.20422673	     -5.63362902	     -2.61074303	    -62.35721309	     -1.43575000	      6.48100410	     -6.69371283	      7.03956828	     -2.71209154
      2.73000000	     -0.45728789	     -6.46978509	     16.23306554	     -0.15884706	      0.94123004	      0.28174618	     17.95523615	      7.67060416	      3.64262489	    -24.20874434	      8.63987841	      1.21981365	     14.85290272	     -6.61640092	     -3.70222910	    -64.23348466	     -1.14380414	      4.89011242	     -6.90428545	      7.02369699	     -1.94058520
      2.74000000	     -0.35200490	     -6.52960420	     16.32969443	     -0.15068444	      0.94228588	      0.28030333	     17.04464236	      7.78677651	      3.55866365	    -23.74385256	      8.95748251	      1.19087870	     16.43636008	     -7.46390775	     -4.65264906	    -65.81959502	     -0.78073374	      3.29103408	     -7.09559415	      6.95392721	     -1.15717221
      2.75000000	     -0.26413356	     -6.53824133	     16.42863632	     -0.14259086	      0.94336166	      0.27866391	     16.12475955	      7.84018668	      3.49561158	    -23.26073074	      9.26115035	      1.14832059	     17.95166713	     -8.16857471	     -5.48400760	    -67.10834003	     -0.36267886	      1.82332552	     -7.26454456	      6.83536123	     -0.39120595
      2.76000000	     -0.19292254	     -6.49859536	     16.53592360	     -0.13459225	      0.94443692	      0.27682001	     15.20625129	      7.82790057	      3.43264363	    -22.77285350	      9.56463216	      1.10653188	     19.40063848	     -8.72180023	     -6.19438689	    -68.10139274	      0.07383564	      0.56887032	     -7.41630665	      6.67325545	      0.36176563
      2.77000000	     -0.13991121	     -6.39827339	     16.66970749	     -0.12667767	      0.94550039	      0.27473159	     14.28308147	      7.73154265	      3.36131952	    -22.27681408	      9.89113619	      1.07308312	     20.77350460	     -9.09709600	     -6.78477828	    -68.79080967	      0.55222448	     -0.45153039	     -7.54731022	      6.45650501	      1.04961339
      2.78000000	     -0.09837833	     -6.26412013	     16.81823852	     -0.11887791	      0.94652740	      0.27243636	     13.38047948	      7.58143789	      3.25670780	    -21.80563257	     10.18140714	      1.06300838	     22.07286885	     -9.33913809	     -7.28504664	    -69.18672565	      1.08036056	     -1.17753817	     -7.66836636	      6.21642263	      1.72099568
      2.79000000	     -0.06188366	     -6.08750466	     17.01904930	     -0.11119618	      0.94749807	      0.26989726	     12.47854446	      7.36475694	      3.10991917	    -21.34659849	     10.53303508	      1.06650774	     23.30201110	     -9.43045380	     -7.67150495	    -69.30267793	      1.56451460	     -1.72606260	     -7.78504352	      5.94558015	      2.31907462
      2.80000000	     -0.05158530	     -5.92137616	     17.26298260	     -0.10363928	      0.94833956	      0.26717841	     11.61529848	      7.13887962	      2.93927333	    -20.89366827	     10.87706525	      1.06583507	     24.50832705	     -9.43341098	     -7.94506217	    -69.16514181	      2.07323450	     -1.93626637	     -7.86340544	      5.69156080	      2.86271571
      2.81000000	     -0.04200719	     -5.75302458	     17.52249415	     -0.09615555	      0.94908885	      0.26433097	     10.76163589	      6.90330958	      2.74467972	    -20.45371120	     11.20216679	      1.07829139	     25.63436157	     -9.38404169	     -8.18302805	    -68.76403207	      2.55549613	     -2.12545835	     -7.93762889	      5.44119581	      3.38952662
      2.82000000	      0.02334358	     -5.54947784	     17.80718965	     -0.08871179	      0.94984817	      0.26132942	      9.84298803	      6.63755614	      2.48360450	    -20.02169249	     11.53839522	      1.14541372	     26.59417820	     -9.27249016	     -8.39697554	    -68.09074577	      2.99158250	     -2.28934400	     -8.08282049	      5.17520505	      3.90311378
